<svg width="100" height="100" viewBox="0 0 100 100" fill="none" xmlns="http://www.w3.org/2000/svg">
<path d="M50 100C77.6142 100 100 77.6142 100 50C100 22.3858 77.6142 0 50 0C22.3858 0 0 22.3858 0 50C0 77.6142 22.3858 100 50 100Z" fill="white"/>
<path d="M26.9149 39.7104C32.2848 39.7104 34.9876 42.3526 34.9876 42.3526L32.4027 47.144C32.4027 47.144 30.5175 45.2589 27.4076 45.2589C23.5159 45.2589 21.9485 47.6403 21.9485 50.3396C21.9485 53.5029 24.0372 55.7701 27.2041 55.7701C29.15 55.7701 30.6603 54.7526 30.8638 54.4919V53.5636H28.2217V49.0935H36.0587V60.8223H31.0637V59.9225C31.0637 59.6048 31.0923 59.312 31.1209 59.2549H31.0066C30.746 59.6048 29.0893 61.1722 25.751 61.1722C20.1169 61.1722 15.5039 56.9627 15.5039 50.4895C15.5039 44.3913 20.0026 39.7176 26.9149 39.7176V39.7104Z" fill="#E71F58"/>
<path d="M39.5993 40.0564H46.4509L49.0645 48.4183C49.4715 49.7536 49.9357 51.7566 49.9357 51.7566H50.0535C50.0535 51.7566 50.4891 49.7536 50.9247 48.4183L53.5382 40.0564H60.3613L61.9001 60.8148H56.0661L55.4841 52.1637C55.3663 50.5962 55.4841 48.8253 55.4841 48.8253H55.3663C55.3663 48.8253 54.845 50.8569 54.4094 52.1637L52.5242 58.0584H47.4721L45.5548 52.1637C45.1477 50.8569 44.6265 48.8253 44.6265 48.8253H44.5122C44.5122 48.8253 44.5979 50.5962 44.4836 52.1637L43.9338 60.8148H38.0391L39.6065 40.0564H39.5993Z" fill="#E71F58"/>
<path d="M69.9942 40.0566H76.728L83.5796 60.815H77.5135L76.4102 56.9839H70.2834L69.2087 60.815H63.1426L69.9942 40.0566ZM75.132 52.4245L74.1751 49.0576C73.8252 47.7509 73.4218 45.3408 73.4218 45.3408H73.3075C73.3075 45.3408 72.9005 47.7509 72.522 49.0576L71.5652 52.4245H75.1356H75.132Z" fill="#E71F58"/>
<path d="M49.9974 98.2001C23.4193 98.2001 1.79688 76.5777 1.79688 49.9996C1.79688 23.4215 23.4228 1.79907 49.9974 1.79907C76.5719 1.79907 98.1979 23.4215 98.1979 49.9996C98.1979 76.5777 76.5755 98.2001 49.9974 98.2001ZM49.9974 5.11598C25.2509 5.11598 5.11735 25.2495 5.11735 49.9996C5.11735 74.7497 25.2509 94.8796 49.9974 94.8796C74.7439 94.8796 94.8774 74.7461 94.8774 49.9996C94.8774 25.2531 74.7475 5.11598 49.9974 5.11598Z" fill="#E71F58"/>
<path d="M49.9997 92.2386C26.7099 92.2386 7.76172 73.2904 7.76172 50.0006C7.76172 26.7109 26.7063 7.7627 49.9997 7.7627C73.293 7.7627 92.2376 26.7109 92.2376 50.0006C92.2376 73.2904 73.2894 92.2386 49.9997 92.2386ZM49.9997 9.49077C27.6632 9.49077 9.4898 27.6642 9.4898 50.0006C9.4898 72.3371 27.6632 90.5105 49.9997 90.5105C72.3361 90.5105 90.5095 72.3371 90.5095 50.0006C90.5095 27.6642 72.3361 9.4872 49.9997 9.4872V9.49077Z" fill="#E71F58"/>
<path d="M49.998 12.9601C47.0203 12.9601 19.8066 34.8217 19.8066 34.8217L49.998 28.5056V12.9601Z" fill="#F0858B"/>
<path d="M50 28.5056L80.1914 34.8217C80.1914 34.8217 52.9777 12.9601 50 12.9601V28.5056Z" fill="#E71F58"/>
<path d="M50 87.7177C52.9777 87.7177 80.1914 65.8561 80.1914 65.8561L50 72.1722V87.7177Z" fill="#F0858B"/>
<path d="M49.998 72.1722L19.8066 65.8561C19.8066 65.8561 47.0203 87.7177 49.998 87.7177V72.1722Z" fill="#E71F58"/>
</svg>
